<svg xmlns="http://www.w3.org/2000/svg" xmlns:xlink="http://www.w3.org/1999/xlink" width="1080" zoomAndPan="magnify" viewBox="0 0 810 809.999993" height="1080" preserveAspectRatio="xMidYMid meet" version="1.0"><path fill="#ff5757" d="M 96.894531 449.203125 C 72.976562 449.203125 53.5625 468.59375 53.5625 492.539062 C 53.5625 516.433594 72.976562 535.847656 96.894531 535.847656 C 120.816406 535.847656 140.207031 516.433594 140.207031 492.539062 C 140.207031 468.570312 120.816406 449.203125 96.894531 449.203125 Z M 96.894531 514.433594 C 84.796875 514.433594 74.976562 504.613281 74.976562 492.539062 C 74.976562 480.414062 84.796875 470.644531 96.894531 470.644531 C 108.996094 470.644531 118.792969 480.441406 118.792969 492.539062 C 118.792969 504.613281 108.96875 514.433594 96.894531 514.433594 Z M 96.894531 514.433594 " fill-opacity="1" fill-rule="nonzero"/><path fill="#ff5757" d="M 487.796875 471.554688 L 480.480469 471.554688 L 480.480469 437.992188 C 480.480469 431.535156 475.242188 426.296875 468.8125 426.296875 L 244.875 426.296875 C 244.875 388.859375 244.875 347.625 244.875 338.664062 C 244.875 321.503906 235.128906 314.71875 221.6875 314.71875 C 213.257812 314.71875 158.609375 314.71875 143.875 314.71875 C 129.144531 314.71875 116.511719 342.308594 97.554688 380.203125 C 97.554688 380.203125 71.582031 388.328125 36.375 401.1875 C 12.679688 409.84375 13.265625 432.878906 13.265625 445.507812 C 13.265625 451.433594 13.265625 462.011719 13.265625 471.554688 L 5.847656 471.554688 C 2.632812 471.554688 0 474.214844 0 477.429688 L 0 494.945312 C 0 498.183594 2.632812 500.765625 5.847656 500.765625 L 42.574219 500.765625 C 42.171875 498.082031 41.867188 495.347656 41.867188 492.539062 C 41.867188 462.191406 66.546875 437.511719 96.871094 437.511719 C 127.195312 437.511719 151.875 462.164062 151.875 492.539062 C 151.875 495.347656 151.597656 498.109375 151.191406 500.792969 L 353.132812 500.792969 C 352.730469 498.109375 352.453125 495.347656 352.453125 492.539062 C 352.453125 462.191406 377.132812 437.511719 407.480469 437.511719 C 437.804688 437.511719 462.484375 462.191406 462.484375 492.539062 C 462.484375 495.347656 462.207031 498.109375 461.800781 500.792969 L 487.796875 500.792969 C 491.011719 500.792969 493.617188 498.183594 493.617188 494.96875 L 493.617188 477.429688 C 493.617188 474.214844 491.011719 471.554688 487.796875 471.554688 Z M 58.902344 438.496094 L 27.769531 438.496094 C 27.769531 425.789062 32.628906 419.4375 32.628906 419.4375 C 66.699219 417.335938 58.902344 438.496094 58.902344 438.496094 Z M 209.816406 376.660156 L 112.363281 376.660156 C 122.511719 356.207031 137.496094 326.414062 143.875 326.414062 L 198.324219 326.414062 C 206.929688 326.414062 209.816406 329.5 209.816406 338.664062 Z M 209.816406 376.660156 " fill-opacity="1" fill-rule="nonzero"/><path fill="#ff5757" d="M 218.09375 310.164062 L 218.09375 305.429688 C 218.09375 298.976562 212.851562 293.734375 206.421875 293.734375 L 187.921875 293.734375 C 181.464844 293.734375 176.25 298.976562 176.25 305.429688 L 176.25 310.1875 C 192.601562 310.164062 209.992188 310.164062 218.09375 310.164062 Z M 218.09375 310.164062 " fill-opacity="1" fill-rule="nonzero"/><path fill="#ff5757" d="M 407.480469 449.203125 C 383.535156 449.203125 364.144531 468.59375 364.144531 492.539062 C 364.144531 516.433594 383.535156 535.847656 407.480469 535.847656 C 431.402344 535.847656 450.789062 516.433594 450.789062 492.539062 C 450.789062 468.570312 431.402344 449.203125 407.480469 449.203125 Z M 407.480469 514.433594 C 395.355469 514.433594 385.558594 504.613281 385.558594 492.539062 C 385.558594 480.414062 395.355469 470.644531 407.480469 470.644531 C 419.578125 470.644531 429.375 480.441406 429.375 492.539062 C 429.375 504.613281 419.554688 514.433594 407.480469 514.433594 Z M 407.480469 514.433594 " fill-opacity="1" fill-rule="nonzero"/><path fill="#ff5757" d="M 545.433594 362.507812 C 529.234375 353.167969 508.554688 358.710938 499.214844 374.863281 C 489.871094 391.0625 495.417969 411.71875 511.617188 421.082031 C 527.789062 430.421875 548.472656 424.855469 557.8125 408.703125 C 567.152344 392.503906 561.609375 371.851562 545.433594 362.507812 Z M 519.96875 406.605469 C 511.769531 401.84375 508.957031 391.417969 513.691406 383.242188 C 518.425781 375.0625 528.878906 372.253906 537.054688 376.988281 C 545.230469 381.722656 548.039062 392.175781 543.308594 400.351562 C 538.597656 408.527344 528.144531 411.3125 519.96875 406.605469 Z M 519.96875 406.605469 " fill-opacity="1" fill-rule="nonzero"/><path fill="#ff5757" d="M 736.339844 472.746094 C 720.140625 463.355469 699.460938 468.921875 690.121094 485.074219 C 680.78125 501.273438 686.324219 521.953125 702.523438 531.292969 C 718.699219 540.632812 739.378906 535.066406 748.71875 518.914062 C 758.058594 502.742188 752.515625 482.035156 736.339844 472.746094 Z M 710.875 516.8125 C 702.675781 512.054688 699.867188 501.601562 704.597656 493.425781 C 709.332031 485.25 719.785156 482.441406 727.988281 487.199219 C 736.164062 491.90625 738.949219 502.359375 734.238281 510.535156 C 729.507812 518.761719 719.050781 521.523438 710.875 516.8125 Z M 710.875 516.8125 " fill-opacity="1" fill-rule="nonzero"/><path fill="#ff5757" d="M 810 476.1875 L 787.828125 456.949219 C 787.828125 456.949219 767.449219 391.390625 743.882812 377.773438 C 736.1875 373.34375 680.476562 341.195312 670.882812 335.652344 C 661.265625 330.109375 569.785156 331.097656 569.785156 331.097656 C 569.785156 331.097656 527.308594 318.085938 508.605469 314.996094 C 489.921875 311.882812 467.472656 346.308594 469.320312 365.292969 L 488.886719 376.582031 C 489.671875 374.53125 490.582031 372.484375 491.71875 370.535156 C 503.441406 350.234375 529.460938 343.296875 549.738281 354.992188 C 570.011719 366.710938 577 392.734375 565.277344 413.007812 C 564.140625 414.957031 562.847656 416.78125 561.457031 418.5 L 679.792969 486.820312 C 680.578125 484.742188 681.488281 482.742188 682.628906 480.769531 C 694.347656 460.46875 720.367188 453.507812 740.644531 465.226562 C 760.917969 476.921875 767.90625 502.96875 756.1875 523.269531 C 755.703125 524.027344 755.199219 524.789062 754.691406 525.546875 C 764.917969 528.027344 777.144531 530.558594 779.472656 529.039062 C 783.625 526.28125 803.015625 501.601562 810 476.1875 Z M 510.273438 341.019531 C 505.007812 337.980469 493.238281 331.171875 493.238281 331.171875 C 500.65625 323.300781 506.175781 322.640625 506.175781 322.640625 C 527.109375 334.109375 515.566406 344.082031 510.273438 341.019531 Z M 674.503906 393.71875 L 580.847656 339.625 C 619.929688 339.476562 660.402344 340.742188 666.859375 343.324219 L 694.398438 359.242188 Z M 683.160156 398.707031 L 703.078125 364.230469 L 722.242188 375.316406 C 736.011719 383.242188 751.832031 418.777344 760.160156 443.179688 Z M 785.726562 497.5 C 782.5625 495.652344 781.449219 491.601562 783.296875 488.4375 L 788.003906 480.289062 C 789.851562 477.074219 793.902344 475.984375 797.089844 477.832031 L 800.484375 479.757812 C 797.800781 487.070312 794.304688 494.109375 790.710938 500.386719 Z M 785.726562 497.5 " fill-opacity="1" fill-rule="nonzero"/><path fill="#ff5757" d="M 353.71875 414.628906 L 434.816406 277.890625 C 440.058594 268.601562 437.199219 257.058594 428.640625 251.058594 C 420.085938 245.035156 408.238281 246.300781 401.304688 254.425781 L 270.007812 414.628906 Z M 353.71875 414.628906 " fill-opacity="1" fill-rule="nonzero"/><path fill="#ff5757" d="M 488.355469 385.492188 C 487.113281 381.644531 482.988281 379.570312 479.164062 380.785156 C 475.316406 382.050781 473.242188 386.152344 474.457031 389.949219 C 476.382812 395.898438 473.117188 402.273438 467.191406 404.199219 C 461.269531 406.097656 454.890625 402.832031 452.941406 396.933594 C 451.019531 391.011719 454.285156 384.605469 460.207031 382.683594 C 464.054688 381.441406 466.15625 377.316406 464.914062 373.46875 L 436.285156 285.105469 L 426.363281 301.859375 L 449.09375 372.027344 C 439.855469 378.355469 435.425781 390.25 439.070312 401.414062 C 443.476562 414.980469 458.105469 422.476562 471.699219 418.070312 C 485.265625 413.714844 492.757812 399.085938 488.355469 385.492188 Z M 488.355469 385.492188 " fill-opacity="1" fill-rule="nonzero"/></svg>