<svg xmlns="http://www.w3.org/2000/svg" xmlns:xlink="http://www.w3.org/1999/xlink" width="1080" zoomAndPan="magnify" viewBox="0 0 810 809.999993" height="1080" preserveAspectRatio="xMidYMid meet" version="1.0"><path fill="#00bf63" d="M 500.339844 558.832031 L 410.886719 558.832031 C 411.457031 556.933594 411.835938 555.035156 411.835938 552.945312 C 411.835938 547.058594 409.179688 541.359375 404.808594 537.5625 C 403.480469 526.738281 394.175781 518.191406 382.96875 518.191406 C 381.449219 518.191406 379.929688 518.382812 378.410156 518.761719 C 374.421875 515.152344 369.296875 513.253906 363.789062 513.253906 C 358.089844 513.253906 352.773438 515.53125 348.785156 519.332031 C 346.316406 518.382812 343.65625 517.8125 340.808594 517.8125 C 335.871094 517.8125 330.933594 519.519531 326.945312 522.558594 C 324.855469 521.800781 322.386719 521.417969 320.105469 521.417969 C 314.980469 521.417969 310.042969 523.128906 306.054688 526.167969 C 301.304688 527.308594 296.9375 529.964844 293.707031 533.574219 C 290.480469 534.714844 287.628906 536.421875 285.351562 538.703125 C 284.972656 536.992188 284.78125 535.285156 284.78125 533.574219 C 284.78125 520.660156 294.277344 510.214844 306.8125 508.503906 C 311.941406 500.339844 320.675781 494.832031 330.171875 493.882812 C 336.058594 488.183594 343.847656 484.957031 351.824219 484.957031 L 352.773438 485.144531 C 353.910156 485.144531 355.050781 485.714844 355.621094 486.476562 C 356.382812 487.425781 356.570312 488.753906 356.382812 489.894531 L 355.050781 494.640625 L 390.1875 503.945312 L 393.226562 492.363281 C 389.617188 489.894531 387.527344 485.714844 387.90625 481.15625 C 388.097656 479.449219 389.425781 478.117188 391.136719 477.738281 C 392.464844 477.546875 393.792969 477.546875 395.125 477.546875 C 403.101562 477.546875 410.886719 480.777344 416.585938 486.09375 C 420.574219 475.460938 431.019531 468.054688 442.984375 468.054688 C 453.429688 468.054688 462.925781 473.75 467.863281 482.675781 C 472.230469 479.828125 477.546875 478.308594 482.867188 478.308594 C 498.441406 478.308594 511.164062 491.03125 511.164062 506.796875 C 511.164062 508.125 511.164062 509.265625 510.972656 510.59375 C 519.898438 514.773438 525.597656 523.507812 525.597656 533.574219 C 525.597656 547.4375 514.203125 558.832031 500.339844 558.832031 Z M 467.863281 539.652344 C 466.152344 539.652344 464.632812 538.511719 464.253906 536.804688 C 463.683594 534.714844 464.824219 532.625 466.914062 532.246094 C 470.332031 531.296875 472.421875 527.6875 471.472656 524.269531 C 470.710938 521.417969 468.242188 519.519531 465.394531 519.519531 C 463.496094 519.332031 461.785156 517.621094 461.785156 515.722656 C 461.785156 514.960938 461.785156 514.203125 461.59375 513.632812 C 460.457031 509.265625 455.898438 506.796875 451.71875 507.933594 C 449.820312 508.503906 448.113281 509.644531 447.160156 511.355469 C 446.023438 513.0625 443.554688 513.632812 441.84375 512.492188 C 440.136719 511.355469 439.566406 509.074219 440.703125 507.367188 C 442.792969 503.945312 446.023438 501.667969 449.820312 500.527344 C 453.808594 499.578125 457.988281 500.148438 461.59375 502.238281 C 465.203125 504.328125 467.863281 507.554688 468.8125 511.542969 C 469.003906 511.921875 469.003906 512.113281 469.003906 512.304688 C 473.75 513.632812 477.546875 517.429688 478.878906 522.179688 C 480.777344 529.777344 476.410156 537.5625 468.8125 539.460938 C 468.621094 539.652344 468.242188 539.652344 467.863281 539.652344 Z M 467.863281 539.652344 " fill-opacity="1" fill-rule="evenodd"/><path fill="#00bf63" d="M 391.324219 567 L 299.976562 567 C 292.1875 567 285.921875 560.734375 285.921875 552.945312 C 285.921875 546.109375 290.859375 540.410156 297.316406 539.273438 C 299.976562 535.285156 304.152344 532.816406 308.902344 532.054688 C 311.941406 529.394531 315.929688 527.6875 320.105469 527.6875 C 322.957031 527.6875 325.804688 528.445312 328.273438 529.964844 C 331.5 526.359375 336.058594 524.078125 340.808594 524.078125 C 344.226562 524.078125 347.644531 525.21875 350.492188 527.117188 C 353.152344 522.558594 358.089844 519.519531 363.789062 519.519531 C 368.914062 519.519531 373.472656 521.988281 376.511719 525.976562 C 378.410156 525.027344 380.691406 524.648438 382.96875 524.648438 C 391.515625 524.648438 398.542969 531.484375 398.542969 540.222656 C 398.542969 540.410156 398.542969 540.601562 398.542969 540.980469 C 402.722656 543.449219 405.378906 548.007812 405.378906 552.945312 C 405.378906 560.734375 399.113281 567 391.324219 567 Z M 391.324219 567 " fill-opacity="1" fill-rule="evenodd"/><path fill="#00bf63" d="M 466.34375 492.550781 C 465.964844 492.550781 465.582031 492.363281 465.394531 492.363281 C 464.066406 491.984375 463.113281 491.03125 462.734375 489.894531 C 461.214844 485.523438 458.558594 481.917969 454.757812 479.257812 C 453.808594 478.6875 453.238281 477.546875 453.238281 476.410156 C 453.238281 475.648438 453.050781 475.078125 453.050781 474.320312 C 453.050781 458.746094 461.785156 446.402344 472.800781 446.402344 C 483.625 446.402344 492.363281 458.746094 492.363281 474.320312 C 492.363281 477.546875 491.980469 480.585938 491.222656 483.4375 C 490.84375 485.523438 488.945312 486.664062 486.855469 486.285156 C 480.398438 485.144531 473.75 487.042969 468.8125 491.414062 C 468.054688 492.171875 467.292969 492.550781 466.34375 492.550781 Z M 466.34375 492.550781 " fill-opacity="1" fill-rule="evenodd"/><path fill="#00bf63" d="M 478.878906 455.898438 C 478.117188 455.898438 477.359375 455.707031 476.789062 455.328125 C 474.128906 453.617188 471.28125 453.617188 468.621094 455.328125 C 467.101562 456.277344 465.015625 456.089844 463.875 454.757812 C 458.558594 449.0625 453.238281 442.414062 453.238281 435.007812 C 453.238281 428.550781 458.558594 423.421875 464.824219 423.421875 C 468.433594 423.421875 470.902344 424.5625 472.800781 426.460938 C 474.511719 424.5625 476.980469 423.421875 480.585938 423.421875 C 486.855469 423.421875 492.171875 428.550781 492.171875 435.007812 C 492.171875 442.414062 486.855469 449.0625 481.535156 454.757812 C 480.777344 455.519531 479.828125 455.898438 478.878906 455.898438 Z M 478.878906 455.898438 " fill-opacity="1" fill-rule="evenodd"/><path fill="#00bf63" d="M 390.1875 511.734375 C 389.617188 511.734375 389.046875 511.542969 388.289062 511.355469 L 352.773438 501.859375 C 348.972656 500.910156 346.503906 496.730469 347.644531 492.933594 L 351.632812 477.738281 C 352.203125 475.839844 354.292969 474.511719 356.382812 475.078125 C 358.660156 475.839844 361.128906 474.320312 361.699219 472.042969 C 362.457031 469.761719 360.9375 467.292969 358.660156 466.535156 C 356.570312 466.152344 355.429688 464.066406 356 461.976562 L 359.988281 446.972656 C 360.75 443.742188 363.789062 441.464844 367.015625 441.464844 C 367.777344 441.464844 368.347656 441.464844 368.914062 441.652344 L 404.429688 451.148438 C 406.328125 451.71875 408.039062 452.859375 408.988281 454.570312 C 409.9375 456.277344 410.128906 458.367188 409.746094 460.265625 L 405.757812 475.269531 C 405.191406 477.359375 403.101562 478.5 401.011719 477.929688 C 398.734375 477.359375 396.265625 478.878906 395.695312 481.15625 C 395.3125 482.296875 395.503906 483.4375 396.074219 484.386719 C 396.644531 485.523438 397.59375 486.285156 398.734375 486.476562 C 399.683594 486.855469 400.632812 487.425781 401.011719 488.375 C 401.582031 489.132812 401.769531 490.273438 401.390625 491.222656 L 397.402344 506.226562 C 396.453125 509.453125 393.605469 511.734375 390.1875 511.734375 Z M 390.1875 511.734375 " fill-opacity="1" fill-rule="evenodd"/><path fill="#00bf63" d="M 393.226562 455.898438 C 392.84375 455.898438 392.464844 455.898438 392.085938 455.707031 L 377.460938 451.910156 C 375.371094 451.339844 374.234375 449.25 374.804688 447.160156 L 379.550781 429.308594 C 380.121094 427.21875 382.210938 426.082031 384.109375 426.652344 L 398.921875 430.640625 C 399.871094 430.828125 400.632812 431.589844 401.203125 432.347656 C 401.769531 433.296875 401.769531 434.246094 401.582031 435.195312 L 396.832031 453.050781 C 396.453125 454 395.882812 454.949219 395.125 455.328125 C 394.363281 455.707031 393.792969 455.898438 393.226562 455.898438 Z M 393.226562 455.898438 " fill-opacity="1" fill-rule="evenodd"/><path fill="#00bf63" d="M 299.40625 518.761719 C 299.027344 518.761719 298.457031 518.570312 298.078125 518.382812 C 296.9375 518 296.175781 517.050781 295.796875 515.910156 L 287.820312 486.476562 C 287.441406 484.765625 287.628906 483.054688 288.582031 481.535156 C 289.53125 479.828125 290.859375 478.878906 292.570312 478.308594 L 295.988281 477.359375 L 293.328125 467.292969 C 293.136719 466.34375 293.136719 465.203125 293.707031 464.445312 C 294.277344 463.496094 295.039062 462.925781 295.988281 462.546875 L 309.851562 458.9375 C 311.941406 458.367188 314.03125 459.507812 314.597656 461.59375 L 317.257812 471.660156 L 320.675781 470.902344 C 321.246094 470.710938 321.816406 470.523438 322.386719 470.523438 C 325.425781 470.523438 328.082031 472.609375 328.84375 475.460938 L 334.539062 496.730469 C 334.921875 497.679688 334.730469 499.007812 333.96875 499.769531 C 333.402344 500.71875 332.261719 501.289062 331.121094 501.476562 C 323.144531 502.046875 316.308594 506.796875 312.511719 513.824219 C 311.941406 515.152344 310.609375 515.910156 309.28125 515.910156 C 306.433594 516.101562 303.773438 516.863281 301.304688 518.191406 C 300.734375 518.570312 300.164062 518.761719 299.40625 518.761719 Z M 299.40625 518.761719 " fill-opacity="1" fill-rule="evenodd"/><path fill="#00bf63" d="M 291.238281 471.660156 C 289.53125 471.660156 288.011719 470.523438 287.441406 468.8125 L 284.59375 458.175781 C 284.402344 457.226562 284.59375 456.277344 284.972656 455.328125 C 285.542969 454.570312 286.300781 453.808594 287.441406 453.617188 L 312.890625 446.78125 C 314.980469 446.210938 317.066406 447.351562 317.636719 449.441406 L 320.296875 460.078125 C 320.675781 461.027344 320.488281 461.976562 319.917969 462.925781 C 319.535156 463.875 318.585938 464.445312 317.636719 464.632812 L 292.1875 471.472656 C 291.808594 471.660156 291.429688 471.660156 291.238281 471.660156 Z M 291.238281 471.660156 " fill-opacity="1" fill-rule="evenodd"/><path fill="#00bf63" d="M 447.730469 422.09375 C 446.59375 422.09375 445.640625 421.523438 445.074219 420.953125 L 428.738281 404.621094 C 427.21875 403.101562 427.21875 400.632812 428.738281 399.300781 L 444.3125 383.539062 L 444.3125 369.296875 L 426.269531 351.253906 L 383.730469 351.253906 L 365.6875 369.296875 L 365.6875 383.539062 L 381.449219 399.300781 C 382.96875 400.632812 382.96875 403.101562 381.449219 404.621094 L 365.117188 420.953125 C 363.789062 422.28125 361.128906 422.28125 359.800781 420.953125 L 336.25 397.402344 C 335.488281 396.644531 335.109375 395.695312 335.109375 394.746094 L 335.109375 358.089844 C 335.109375 357.140625 335.488281 356.191406 336.25 355.429688 L 370.054688 321.625 C 370.625 321.054688 371.574219 320.488281 372.714844 320.488281 L 437.476562 320.488281 C 438.425781 320.488281 439.375 321.054688 440.136719 321.625 L 473.941406 355.429688 C 474.699219 356.191406 475.078125 357.140625 475.078125 358.089844 L 475.078125 394.746094 C 475.078125 395.695312 474.699219 396.644531 473.941406 397.402344 L 450.390625 420.953125 C 449.628906 421.523438 448.679688 422.09375 447.730469 422.09375 Z M 447.730469 422.09375 " fill-opacity="1" fill-rule="evenodd"/><path fill="#00bf63" d="M 416.015625 328.082031 L 393.984375 328.082031 C 391.894531 328.082031 390.1875 326.375 390.1875 324.285156 L 390.1875 266.929688 C 390.1875 264.652344 391.894531 263.132812 393.984375 263.132812 L 416.015625 263.132812 C 418.292969 263.132812 419.8125 264.652344 419.8125 266.929688 L 419.8125 324.285156 C 419.8125 326.375 418.292969 328.082031 416.015625 328.082031 Z M 416.015625 328.082031 " fill-opacity="1" fill-rule="evenodd"/><path fill="#00bf63" d="M 457.796875 270.726562 L 352.394531 270.726562 C 350.304688 270.726562 348.59375 269.019531 348.59375 266.929688 L 348.59375 246.796875 C 348.59375 244.710938 350.304688 243 352.394531 243 L 457.796875 243 C 459.886719 243 461.59375 244.710938 461.59375 246.796875 L 461.59375 266.929688 C 461.59375 269.019531 459.886719 270.726562 457.796875 270.726562 Z M 457.796875 270.726562 " fill-opacity="1" fill-rule="evenodd"/><path fill="#00bf63" d="M 302.632812 423.613281 C 301.683594 423.613281 300.546875 423.230469 299.976562 422.472656 C 261.613281 384.109375 261.613281 322.007812 299.976562 283.832031 C 301.304688 282.3125 303.773438 282.3125 305.292969 283.832031 C 306.8125 285.351562 306.8125 287.628906 305.292969 289.148438 C 269.96875 324.476562 269.96875 381.828125 305.292969 416.964844 C 306.8125 418.484375 306.8125 420.953125 305.292969 422.472656 C 304.535156 423.230469 303.582031 423.613281 302.632812 423.613281 Z M 302.632812 423.613281 " fill-opacity="1" fill-rule="evenodd"/><path fill="#00bf63" d="M 307.953125 318.019531 C 305.863281 318.019531 269.589844 288.011719 269.589844 286.492188 C 269.589844 284.402344 271.296875 282.691406 273.386719 282.691406 L 302.632812 282.691406 C 304.34375 282.691406 305.863281 284.023438 306.242188 285.730469 L 311.75 313.460938 C 312.128906 315.546875 310.800781 317.449219 308.710938 317.828125 C 308.332031 318.019531 308.140625 318.019531 307.953125 318.019531 Z M 307.953125 318.019531 " fill-opacity="1" fill-rule="evenodd"/><path fill="#00bf63" d="M 507.554688 423.613281 C 506.605469 423.613281 505.65625 423.230469 504.898438 422.472656 C 503.378906 420.953125 503.378906 418.484375 504.898438 416.964844 C 540.03125 381.828125 540.03125 324.476562 504.898438 289.148438 C 503.378906 287.628906 503.378906 285.351562 504.898438 283.832031 C 506.417969 282.3125 508.695312 282.3125 510.214844 283.832031 C 548.386719 322.007812 548.386719 384.109375 510.214844 422.472656 C 509.453125 423.230469 508.503906 423.613281 507.554688 423.613281 Z M 507.554688 423.613281 " fill-opacity="1" fill-rule="evenodd"/><path fill="#00bf63" d="M 536.613281 423.613281 L 507.554688 423.613281 C 505.65625 423.613281 504.136719 422.28125 503.757812 420.382812 L 498.441406 392.84375 C 498.058594 390.757812 499.390625 388.667969 501.476562 388.289062 C 502.617188 388.097656 540.410156 416.394531 540.410156 419.8125 C 540.410156 421.902344 538.703125 423.613281 536.613281 423.613281 Z M 536.613281 423.613281 " fill-opacity="1" fill-rule="evenodd"/></svg>