<svg xmlns="http://www.w3.org/2000/svg" xmlns:xlink="http://www.w3.org/1999/xlink" width="1080" zoomAndPan="magnify" viewBox="0 0 810 809.999993" height="1080" preserveAspectRatio="xMidYMid meet" version="1.0"><defs><clipPath id="3a3e3b7445"><path d="M 475 269.527344 L 566 269.527344 L 566 533 L 475 533 Z M 475 269.527344 " clip-rule="nonzero"/></clipPath><clipPath id="64201b9dff"><path d="M 392 369 L 469 369 L 469 540.277344 L 392 540.277344 Z M 392 369 " clip-rule="nonzero"/></clipPath></defs><path fill="#5271ff" d="M 388.335938 485.671875 C 387.578125 483.144531 384.546875 481.632812 382.023438 482.390625 C 379.246094 483.144531 377.980469 486.175781 378.738281 488.703125 L 381.011719 495.773438 C 374.195312 497.539062 367.125 498.800781 359.550781 499.054688 L 359.550781 491.730469 C 359.550781 488.953125 357.277344 486.679688 354.5 486.679688 C 351.722656 486.679688 349.449219 488.953125 349.449219 491.730469 L 349.449219 499.054688 C 342.125 498.800781 335.054688 497.539062 328.238281 495.773438 L 330.511719 488.703125 C 331.269531 485.925781 330.007812 483.144531 327.230469 482.390625 C 324.703125 481.632812 321.671875 482.894531 320.914062 485.671875 L 318.644531 492.742188 C 311.824219 490.214844 305.511719 486.933594 299.453125 482.894531 L 303.746094 476.832031 C 305.261719 474.5625 305.007812 471.53125 302.734375 469.765625 C 300.464844 468.25 297.433594 468.5 295.664062 470.773438 L 291.371094 476.832031 C 285.816406 472.289062 280.769531 467.238281 276.222656 461.683594 L 282.28125 457.390625 C 284.554688 455.875 285.058594 452.59375 283.292969 450.320312 C 281.777344 448.046875 278.496094 447.542969 276.222656 449.3125 L 270.164062 453.601562 C 266.121094 447.542969 262.839844 441.230469 260.316406 434.414062 L 267.386719 432.140625 C 270.164062 431.382812 271.425781 428.351562 270.667969 425.828125 C 269.910156 423.304688 266.878906 421.789062 264.355469 422.546875 L 257.285156 424.816406 C 255.515625 418 254.253906 410.929688 254.003906 403.609375 L 261.074219 403.355469 C 263.851562 403.355469 266.121094 401.082031 266.121094 398.304688 C 266.121094 395.527344 263.851562 393.253906 261.074219 393.253906 L 253.75 393.253906 C 254.003906 385.933594 255.265625 378.863281 257.03125 371.792969 L 264.101562 374.0625 C 264.605469 374.316406 265.113281 374.316406 265.617188 374.316406 C 267.636719 374.316406 269.65625 373.054688 270.414062 370.78125 C 271.171875 368.003906 269.910156 365.226562 267.132812 364.46875 L 260.0625 362.195312 C 262.585938 355.378906 265.871094 349.066406 269.910156 343.007812 L 275.96875 347.300781 C 276.980469 348.054688 277.988281 348.308594 279 348.308594 C 280.515625 348.308594 282.03125 347.550781 283.039062 346.289062 C 284.554688 344.015625 284.304688 340.988281 282.03125 339.21875 L 275.96875 334.925781 C 280.515625 329.371094 285.566406 324.070312 291.371094 319.523438 L 295.664062 325.582031 C 296.675781 326.847656 298.191406 327.605469 299.707031 327.605469 C 300.714844 327.605469 301.726562 327.351562 302.734375 326.59375 C 305.007812 325.078125 305.511719 321.796875 303.746094 319.523438 L 299.453125 313.464844 C 305.511719 309.421875 311.824219 306.140625 318.644531 303.617188 L 320.914062 310.6875 C 321.671875 312.707031 323.695312 314.222656 325.714844 314.222656 C 326.21875 314.222656 326.722656 314.222656 327.230469 313.96875 C 330.007812 313.210938 331.269531 310.179688 330.511719 307.65625 L 328.238281 300.585938 C 335.054688 298.816406 342.125 297.554688 349.703125 297.304688 L 349.703125 304.878906 C 349.703125 307.65625 351.972656 309.929688 354.75 309.929688 C 357.527344 309.929688 359.800781 307.65625 359.800781 304.878906 L 359.800781 297.554688 C 367.125 297.808594 374.195312 299.070312 381.011719 300.839844 L 378.738281 307.910156 C 377.980469 310.6875 379.246094 313.464844 382.023438 314.222656 C 382.527344 314.472656 383.03125 314.472656 383.535156 314.472656 C 385.558594 314.472656 387.578125 313.210938 388.335938 310.9375 L 390.605469 303.867188 C 397.425781 306.394531 403.738281 309.675781 409.796875 313.714844 L 405.503906 319.777344 C 403.988281 322.046875 404.242188 325.078125 406.515625 326.847656 C 407.523438 327.605469 408.535156 327.855469 409.546875 327.855469 C 411.058594 327.855469 412.574219 327.097656 413.585938 325.835938 L 417.878906 319.777344 C 423.433594 324.320312 428.484375 329.371094 433.027344 334.925781 L 426.96875 339.21875 C 424.695312 340.734375 424.191406 344.015625 425.957031 346.289062 C 426.96875 347.550781 428.484375 348.308594 429.996094 348.308594 C 431.007812 348.308594 432.019531 348.054688 433.027344 347.300781 L 439.089844 343.007812 C 442.625 348.308594 445.652344 353.863281 447.925781 359.671875 C 448.683594 359.925781 449.441406 360.175781 449.945312 360.429688 C 453.984375 362.195312 457.773438 364.722656 461.308594 367.5 C 457.773438 355.125 452.21875 343.765625 444.894531 333.410156 C 444.644531 333.160156 444.644531 332.90625 444.390625 332.652344 C 444.136719 332.402344 444.136719 332.148438 443.886719 332.148438 C 437.320312 323.3125 429.492188 315.230469 420.402344 308.664062 C 420.148438 308.414062 420.148438 308.414062 419.898438 308.160156 C 419.644531 307.910156 419.394531 307.910156 419.394531 307.910156 C 410.300781 301.34375 399.949219 296.039062 389.09375 292.503906 C 389.09375 292.503906 389.09375 292.503906 388.839844 292.503906 C 388.839844 292.503906 388.839844 292.503906 388.585938 292.503906 C 377.980469 289.222656 366.367188 287.203125 354.5 287.203125 C 342.632812 287.203125 331.015625 289.222656 320.160156 292.503906 C 320.160156 292.503906 320.160156 292.503906 319.90625 292.503906 C 319.90625 292.503906 319.90625 292.503906 319.652344 292.503906 C 308.796875 296.039062 298.695312 301.34375 289.605469 307.910156 C 289.351562 307.910156 289.101562 308.160156 289.101562 308.160156 C 288.847656 308.160156 288.847656 308.414062 288.59375 308.664062 C 279.503906 315.230469 271.425781 323.3125 264.859375 332.402344 C 264.605469 332.652344 264.605469 332.652344 264.355469 332.90625 C 264.101562 333.160156 264.101562 333.410156 264.101562 333.410156 C 257.789062 342.753906 252.488281 352.855469 248.953125 363.710938 C 248.953125 363.710938 248.953125 363.710938 248.953125 363.964844 C 248.953125 363.964844 248.953125 363.964844 248.953125 364.214844 C 245.417969 374.820312 243.398438 386.4375 243.398438 398.304688 C 243.398438 410.171875 245.417969 421.789062 248.699219 432.394531 C 248.699219 432.394531 248.699219 432.394531 248.699219 432.644531 C 252.234375 443.503906 257.539062 453.855469 264.101562 462.945312 C 264.101562 463.199219 264.355469 463.449219 264.355469 463.449219 C 264.355469 463.703125 264.605469 463.703125 264.605469 463.703125 C 271.171875 472.792969 279.253906 480.875 288.34375 487.4375 C 288.59375 487.691406 288.59375 487.691406 288.847656 487.945312 C 288.847656 487.945312 289.101562 487.945312 289.351562 488.195312 C 298.441406 494.761719 308.796875 500.0625 319.90625 503.851562 C 319.90625 503.851562 319.90625 503.851562 320.160156 503.851562 C 331.015625 507.386719 342.378906 509.15625 354.246094 509.15625 C 366.113281 509.15625 377.476562 507.132812 388.335938 503.851562 C 388.335938 503.851562 388.585938 503.851562 388.585938 503.851562 C 388.839844 503.851562 388.839844 503.597656 389.09375 503.597656 C 393.890625 502.085938 398.6875 500.0625 403.234375 497.792969 L 403.484375 486.175781 C 399.191406 488.703125 394.648438 490.722656 390.101562 492.488281 Z M 388.335938 485.671875 " fill-opacity="1" fill-rule="nonzero"/><path fill="#5271ff" d="M 354.5 385.679688 C 347.429688 385.679688 341.875 391.234375 341.875 398.304688 C 341.875 405.375 347.429688 410.929688 354.5 410.929688 C 361.570312 410.929688 367.125 405.375 367.125 398.304688 C 367.125 391.234375 361.570312 385.679688 354.5 385.679688 Z M 354.5 400.828125 C 352.984375 400.828125 351.972656 399.820312 351.972656 398.304688 C 351.972656 396.789062 352.984375 395.78125 354.5 395.78125 C 356.015625 395.78125 357.023438 396.789062 357.023438 398.304688 C 357.023438 399.820312 356.015625 400.828125 354.5 400.828125 Z M 354.5 400.828125 " fill-opacity="1" fill-rule="nonzero"/><path fill="#5271ff" d="M 521.152344 486.679688 C 512.820312 486.679688 506 493.5 506 501.832031 C 506 510.164062 512.820312 516.980469 521.152344 516.980469 C 529.484375 516.980469 536.300781 510.164062 536.300781 501.832031 C 536.300781 493.5 529.484375 486.679688 521.152344 486.679688 Z M 521.152344 506.882812 C 518.375 506.882812 516.101562 504.609375 516.101562 501.832031 C 516.101562 499.054688 518.375 496.78125 521.152344 496.78125 C 523.929688 496.78125 526.203125 499.054688 526.203125 501.832031 C 526.203125 504.609375 523.929688 506.882812 521.152344 506.882812 Z M 521.152344 506.882812 " fill-opacity="1" fill-rule="nonzero"/><g clip-path="url(#3a3e3b7445)"><path fill="#5271ff" d="M 546.402344 325.078125 L 544.886719 325.078125 C 550.441406 319.269531 553.976562 311.191406 553.976562 302.351562 C 553.976562 284.171875 539.332031 269.527344 521.152344 269.527344 C 502.972656 269.527344 488.328125 284.171875 488.328125 302.351562 C 488.328125 311.191406 491.863281 319.269531 497.417969 325.078125 L 495.902344 325.078125 C 484.792969 325.078125 475.703125 334.167969 475.703125 345.277344 L 475.703125 375.578125 C 475.703125 378.355469 477.972656 380.628906 480.75 380.628906 L 498.425781 380.628906 L 498.425781 406.386719 C 492.113281 409.164062 487.570312 413.203125 488.074219 420.523438 C 488.328125 423.050781 490.597656 425.070312 493.125 425.070312 C 493.375 425.070312 493.375 425.070312 493.628906 425.070312 C 496.40625 424.816406 498.425781 422.546875 498.175781 419.769531 C 498.175781 419.261719 498.175781 419.011719 498.425781 418.757812 L 498.425781 431.886719 C 492.113281 434.664062 487.570312 438.707031 488.074219 446.027344 C 488.328125 448.554688 490.597656 450.574219 493.125 450.574219 C 493.375 450.574219 493.375 450.574219 493.628906 450.574219 C 496.40625 450.320312 498.425781 448.046875 498.175781 445.269531 C 498.175781 444.765625 498.175781 444.511719 498.425781 444.261719 L 498.425781 457.390625 C 492.113281 460.167969 487.570312 464.207031 488.074219 471.53125 C 488.328125 474.054688 490.597656 476.078125 493.125 476.078125 C 493.375 476.078125 493.375 476.078125 493.628906 476.078125 C 496.40625 475.824219 498.425781 473.550781 498.175781 470.773438 C 498.175781 470.269531 498.175781 470.015625 498.425781 469.765625 L 498.425781 482.390625 C 498.425781 482.390625 498.425781 482.640625 498.425781 482.640625 C 493.628906 487.945312 490.851562 495.015625 490.851562 502.589844 C 490.851562 519.253906 504.488281 532.890625 521.152344 532.890625 C 537.816406 532.890625 551.453125 519.253906 551.453125 502.589844 C 551.453125 493.75 547.414062 485.671875 541.351562 480.117188 L 541.351562 456.886719 C 543.878906 455.625 545.898438 453.855469 547.160156 451.835938 C 548.421875 449.816406 549.683594 446.535156 548.421875 442.242188 C 547.664062 439.464844 544.886719 437.949219 542.109375 438.707031 C 541.859375 438.707031 541.605469 438.957031 541.101562 438.957031 L 541.101562 431.636719 C 543.625 430.371094 545.644531 428.605469 546.90625 426.585938 C 548.171875 424.566406 549.433594 421.28125 548.171875 416.988281 C 547.414062 414.210938 544.636719 412.699219 541.859375 413.457031 C 541.605469 413.457031 541.351562 413.707031 540.847656 413.707031 L 540.847656 406.386719 C 543.371094 405.121094 545.394531 403.355469 546.65625 401.335938 C 547.917969 399.316406 549.179688 396.03125 547.917969 391.738281 C 547.160156 388.960938 544.382812 387.445312 541.605469 388.203125 C 541.351562 388.203125 541.101562 388.457031 540.59375 388.457031 L 540.59375 380.628906 L 560.796875 380.628906 C 563.574219 380.628906 565.84375 378.355469 565.84375 375.578125 L 565.84375 345.277344 C 566.601562 334.167969 557.511719 325.078125 546.402344 325.078125 Z M 498.425781 302.351562 C 498.425781 289.726562 508.527344 279.628906 521.152344 279.628906 C 533.777344 279.628906 543.878906 289.726562 543.878906 302.351562 C 543.878906 314.976562 533.777344 325.078125 521.152344 325.078125 C 508.527344 325.078125 498.425781 314.976562 498.425781 302.351562 Z M 521.152344 522.03125 C 510.042969 522.03125 500.953125 512.941406 500.953125 501.832031 C 500.953125 490.722656 510.042969 481.632812 521.152344 481.632812 C 532.261719 481.632812 541.351562 490.722656 541.351562 501.832031 C 541.351562 512.941406 532.261719 522.03125 521.152344 522.03125 Z M 531.253906 473.296875 C 527.96875 472.289062 524.6875 471.53125 521.152344 471.53125 C 516.605469 471.53125 512.316406 472.542969 508.527344 474.308594 L 508.527344 464.207031 C 512.316406 463.199219 516.355469 462.695312 519.890625 461.9375 C 523.675781 461.179688 527.71875 460.671875 531.253906 459.664062 Z M 531.253906 449.3125 C 527.210938 450.320312 522.414062 451.332031 518.121094 452.089844 C 514.839844 452.59375 511.558594 453.351562 508.527344 453.855469 L 508.527344 438.957031 C 512.316406 437.949219 516.355469 437.441406 519.890625 436.6875 C 523.675781 435.929688 527.71875 435.421875 531.253906 434.414062 Z M 531.253906 424.058594 C 527.210938 425.070312 522.414062 426.082031 518.121094 426.839844 C 514.839844 427.34375 511.558594 428.101562 508.527344 428.605469 L 508.527344 413.707031 C 512.316406 412.699219 516.355469 412.191406 519.890625 411.433594 C 523.675781 410.675781 527.71875 410.171875 531.253906 409.164062 Z M 531.253906 398.808594 C 527.210938 399.820312 522.414062 400.828125 518.121094 401.585938 C 514.839844 402.09375 511.558594 402.851562 508.527344 403.355469 L 508.527344 380.628906 L 531.253906 380.628906 Z M 556.503906 370.53125 L 485.800781 370.53125 L 485.800781 365.480469 L 521.152344 365.480469 C 523.929688 365.480469 526.203125 363.207031 526.203125 360.429688 C 526.203125 357.652344 523.929688 355.378906 521.152344 355.378906 L 485.800781 355.378906 L 485.800781 345.277344 C 485.800781 339.722656 490.347656 335.179688 495.902344 335.179688 L 546.402344 335.179688 C 551.957031 335.179688 556.503906 339.722656 556.503906 345.277344 Z M 556.503906 370.53125 " fill-opacity="1" fill-rule="nonzero"/></g><path fill="#5271ff" d="M 541.351562 355.378906 L 536.300781 355.378906 C 533.523438 355.378906 531.253906 357.652344 531.253906 360.429688 C 531.253906 363.207031 533.523438 365.480469 536.300781 365.480469 L 541.351562 365.480469 C 544.128906 365.480469 546.402344 363.207031 546.402344 360.429688 C 546.402344 357.652344 544.128906 355.378906 541.351562 355.378906 Z M 541.351562 355.378906 " fill-opacity="1" fill-rule="nonzero"/><path fill="#5271ff" d="M 521.152344 287.203125 C 512.820312 287.203125 506 294.019531 506 302.351562 C 506 310.6875 512.820312 317.503906 521.152344 317.503906 C 529.484375 317.503906 536.300781 310.6875 536.300781 302.351562 C 536.300781 294.019531 529.484375 287.203125 521.152344 287.203125 Z M 521.152344 307.402344 C 518.375 307.402344 516.101562 305.128906 516.101562 302.351562 C 516.101562 299.574219 518.375 297.304688 521.152344 297.304688 C 523.929688 297.304688 526.203125 299.574219 526.203125 302.351562 C 526.203125 305.128906 523.929688 307.402344 521.152344 307.402344 Z M 521.152344 307.402344 " fill-opacity="1" fill-rule="nonzero"/><path fill="#5271ff" d="M 400.203125 366.996094 C 402.726562 364.972656 405.757812 363.207031 408.789062 361.4375 C 396.917969 344.015625 376.972656 332.652344 354.5 332.652344 C 318.390625 332.652344 288.847656 362.195312 288.847656 398.304688 C 288.847656 434.414062 318.390625 463.957031 354.5 463.957031 C 373.4375 463.957031 390.355469 455.875 402.476562 443.25 C 401.210938 442.492188 400.203125 441.484375 398.941406 440.472656 C 398.6875 440.21875 398.433594 439.96875 398.183594 439.714844 C 397.171875 438.707031 395.910156 437.695312 394.898438 436.6875 C 390.101562 431.382812 386.316406 425.070312 384.292969 418 L 377.730469 408.910156 C 378.488281 407.394531 378.992188 405.628906 379.496094 403.859375 L 382.527344 402.851562 C 382.78125 399.0625 383.285156 395.273438 384.292969 391.738281 L 373.4375 395.273438 C 371.417969 396.03125 370.15625 397.800781 369.902344 399.820312 C 369.648438 402.34375 368.890625 404.617188 367.628906 406.636719 C 366.621094 408.40625 366.621094 410.675781 367.882812 412.191406 L 388.082031 439.96875 L 384.042969 443 L 363.839844 415.222656 C 362.832031 413.960938 361.316406 413.203125 359.800781 413.203125 C 359.296875 413.203125 359.042969 413.203125 358.539062 413.457031 C 356.015625 413.960938 353.488281 413.960938 351.214844 413.457031 C 349.195312 412.949219 347.175781 413.707031 345.914062 415.476562 L 325.714844 443.25 L 321.671875 440.21875 L 341.875 412.445312 C 343.136719 410.675781 343.136719 408.65625 342.125 406.890625 C 340.863281 404.871094 340.105469 402.34375 339.855469 400.074219 C 339.601562 398.050781 338.339844 396.285156 336.320312 395.527344 L 303.746094 384.921875 L 305.261719 380.125 L 337.832031 390.730469 C 339.855469 391.488281 341.875 390.730469 343.136719 389.214844 C 344.652344 387.195312 346.671875 385.933594 348.945312 384.921875 C 350.964844 384.164062 352.226562 382.398438 352.226562 380.125 L 352.226562 345.277344 L 357.277344 345.277344 L 357.277344 379.621094 C 357.277344 381.640625 358.539062 383.660156 360.558594 384.417969 C 362.832031 385.425781 364.851562 386.691406 366.367188 388.710938 C 367.628906 390.226562 369.902344 390.980469 371.667969 390.226562 L 386.316406 385.425781 C 388.335938 380.378906 391.363281 375.832031 395.152344 372.042969 L 371.667969 379.621094 C 370.40625 378.355469 368.890625 377.347656 367.375 376.589844 L 367.375 344.269531 C 380.757812 347.300781 392.628906 355.632812 400.203125 366.996094 Z M 351.972656 423.304688 C 353.742188 423.554688 355.507812 423.554688 357.277344 423.304688 L 376.214844 449.3125 C 369.398438 452.339844 362.074219 453.855469 354.5 453.855469 C 346.925781 453.855469 339.601562 452.339844 333.035156 449.5625 Z M 329.753906 403.609375 C 330.007812 405.375 330.761719 407.140625 331.519531 408.65625 L 312.582031 434.664062 C 304 424.816406 298.949219 412.191406 298.949219 398.304688 C 298.949219 396.789062 298.949219 395.273438 299.199219 393.507812 Z M 337.582031 379.621094 L 307.027344 369.773438 C 314.601562 357.148438 327.230469 347.804688 341.875 344.519531 L 341.875 376.84375 C 340.359375 377.347656 338.84375 378.355469 337.582031 379.621094 Z M 337.582031 379.621094 " fill-opacity="1" fill-rule="nonzero"/><g clip-path="url(#64201b9dff)"><path fill="#5271ff" d="M 445.90625 369.773438 C 444.390625 369.015625 442.625 369.265625 441.109375 370.023438 C 439.59375 371.035156 438.835938 372.550781 438.835938 374.316406 L 438.835938 397.292969 L 430.25 402.34375 L 421.664062 397.546875 L 421.664062 374.570312 C 421.664062 372.800781 420.90625 371.285156 419.394531 370.277344 C 417.878906 369.265625 416.109375 369.265625 414.59375 370.023438 C 400.960938 376.085938 392.375 389.71875 392.375 404.363281 C 392.375 419.515625 401.464844 433.152344 415.351562 438.957031 L 413.082031 530.113281 C 413.082031 532.890625 414.089844 535.414062 415.859375 537.433594 C 417.878906 539.453125 420.402344 540.464844 423.179688 540.464844 L 437.824219 540.464844 C 440.601562 540.464844 443.128906 539.453125 445.148438 537.433594 C 447.167969 535.414062 448.179688 532.890625 447.925781 530.113281 L 445.402344 438.707031 C 459.289062 432.898438 468.378906 419.261719 468.378906 404.113281 C 468.125 389.46875 459.289062 375.832031 445.90625 369.773438 Z M 438.582031 430.625 C 436.3125 431.382812 435.046875 433.402344 435.046875 435.675781 L 437.574219 530.363281 L 422.929688 530.363281 L 425.453125 435.675781 C 425.453125 433.402344 424.191406 431.382812 421.917969 430.625 C 410.300781 427.089844 402.476562 416.484375 402.476562 404.363281 C 402.476562 396.539062 406.011719 388.960938 411.816406 383.914062 L 411.816406 400.578125 C 411.816406 402.34375 412.828125 404.113281 414.34375 404.871094 L 427.976562 412.445312 C 429.492188 413.203125 431.511719 413.203125 433.027344 412.445312 L 446.664062 404.871094 C 448.179688 403.859375 449.1875 402.34375 449.1875 400.578125 L 449.1875 383.914062 C 454.996094 388.960938 458.53125 396.539062 458.53125 404.363281 C 458.027344 416.234375 450.199219 426.839844 438.582031 430.625 Z M 438.582031 430.625 " fill-opacity="1" fill-rule="nonzero"/></g></svg>